<svg width="760" height="111" viewBox="0 0 760 111" fill="none" xmlns="http://www.w3.org/2000/svg">
<path fill-rule="evenodd" clip-rule="evenodd" d="M19.5 0.5C19.5 3.8333 19.5 7.1667 19.5 10.5C29.5 10.5 39.5 10.5 49.5 10.5C49.5 13.8333 49.5 17.1667 49.5 20.5C56.1667 20.5 62.8333 20.5 69.5 20.5C69.5 17.1667 69.5 13.8333 69.5 10.5C79.5 10.5 89.5 10.5 99.5 10.5C99.5 13.8333 99.5 17.1667 99.5 20.5C116.167 20.5 132.833 20.5 149.5 20.5C149.5 23.8333 149.5 27.1667 149.5 30.5C159.5 30.5 169.5 30.5 179.5 30.5C179.5 27.1667 179.5 23.8333 179.5 20.5C202.833 20.5 226.167 20.5 249.5 20.5C249.5 17.1667 249.5 13.8333 249.5 10.5C269.5 10.5 289.5 10.5 309.5 10.5C309.5 13.8333 309.5 17.1667 309.5 20.5C372.833 20.5 436.167 20.5 499.5 20.5C499.5 17.1667 499.5 13.8333 499.5 10.5C502.833 10.5 506.167 10.5 509.5 10.5C509.5 7.1667 509.5 3.8333 509.5 0.5C516.167 0.5 522.833 0.5 529.5 0.5C529.5 3.8333 529.5 7.1667 529.5 10.5C536.167 10.5 542.833 10.5 549.5 10.5C549.5 13.8333 549.5 17.1667 549.5 20.5C562.833 20.5 576.167 20.5 589.5 20.5C589.5 17.1667 589.5 13.8333 589.5 10.5C596.167 10.5 602.833 10.5 609.5 10.5C609.5 13.8333 609.5 17.1667 609.5 20.5C616.167 20.5 622.833 20.5 629.5 20.5C629.5 23.8333 629.5 27.1667 629.5 30.5C636.167 30.5 642.833 30.5 649.5 30.5C649.5 27.1667 649.5 23.8333 649.5 20.5C652.833 20.5 656.167 20.5 659.5 20.5C659.5 17.1667 659.5 13.8333 659.5 10.5C672.833 10.5 686.167 10.5 699.5 10.5C699.5 13.8333 699.5 17.1667 699.5 20.5C709.5 20.5 719.5 20.5 729.5 20.5C729.5 17.1667 729.5 13.8333 729.5 10.5C732.833 10.5 736.167 10.5 739.5 10.5C739.5 7.1667 739.5 3.8333 739.5 0.5C742.833 0.5 746.167 0.5 749.5 0.5C749.5 3.8333 749.5 7.1667 749.5 10.5C752.833 10.5 756.167 10.5 759.5 10.5C759.5 20.5 759.5 30.5 759.5 40.5C752.833 40.5 746.167 40.5 739.5 40.5C739.5 37.1667 739.5 33.8333 739.5 30.5C722.833 30.5 706.167 30.5 689.5 30.5C689.5 27.1667 689.5 23.8333 689.5 20.5C682.833 20.5 676.167 20.5 669.5 20.5C669.5 23.8333 669.5 27.1667 669.5 30.5C666.167 30.5 662.833 30.5 659.5 30.5C659.5 33.8333 659.5 37.1667 659.5 40.5C652.833 40.5 646.167 40.5 639.5 40.5C639.5 43.8333 639.5 47.1667 639.5 50.5C636.167 50.5 632.833 50.5 629.5 50.5C629.5 53.8333 629.5 57.1667 629.5 60.5C599.5 60.5 569.5 60.5 539.5 60.5C539.5 57.1667 539.5 53.8333 539.5 50.5C526.167 50.5 512.833 50.5 499.5 50.5C499.5 53.8333 499.5 57.1667 499.5 60.5C492.833 60.5 486.167 60.5 479.5 60.5C479.5 57.1667 479.5 53.8333 479.5 50.5C476.167 50.5 472.833 50.5 469.5 50.5C469.5 47.1667 469.5 43.8333 469.5 40.5C466.167 40.5 462.833 40.5 459.5 40.5C459.5 37.1667 459.5 33.8333 459.5 30.5C446.167 30.5 432.833 30.5 419.5 30.5C419.5 33.8333 419.5 37.1667 419.5 40.5C416.167 40.5 412.833 40.5 409.5 40.5C406.167 40.5 402.833 40.5 399.5 40.5C399.5 43.8333 399.5 47.1667 399.5 50.5C396.167 50.5 392.833 50.5 389.5 50.5C389.5 53.8333 389.5 57.1667 389.5 60.5C386.167 60.5 382.833 60.5 379.5 60.5C379.5 63.833 379.5 67.167 379.5 70.5C366.167 70.5 352.833 70.5 339.5 70.5C339.5 67.167 339.5 63.833 339.5 60.5C336.167 60.5 332.833 60.5 329.5 60.5C329.5 57.1667 329.5 53.8333 329.5 50.5C306.167 50.5 282.833 50.5 259.5 50.5C259.5 53.8333 259.5 57.1667 259.5 60.5C249.5 60.5 239.5 60.5 229.5 60.5C229.5 53.8333 229.5 47.1667 229.5 40.5C226.167 40.5 222.833 40.5 219.5 40.5C209.5 40.5 199.5 40.5 189.5 40.5C189.5 43.8333 189.5 47.1667 189.5 50.5C176.167 50.5 162.833 50.5 149.5 50.5C149.5 53.8333 149.5 57.1667 149.5 60.5C146.167 60.5 142.833 60.5 139.5 60.5C139.5 63.833 139.5 67.167 139.5 70.5C132.833 70.5 126.167 70.5 119.5 70.5C119.5 67.167 119.5 63.833 119.5 60.5C116.167 60.5 112.833 60.5 109.5 60.5C109.5 57.1667 109.5 53.8333 109.5 50.5C79.5 50.5 49.5 50.5 19.5 50.5C19.5 40.5 19.5 30.5 19.5 20.5C16.1667 20.5 12.8333 20.5 9.5 20.5C9.5 17.1667 9.5 13.8333 9.5 10.5C9.5 7.1667 9.5 3.8333 9.5 0.5C12.8333 0.5 16.1667 0.5 19.5 0.5Z" fill="#199128"/>
<path fill-rule="evenodd" clip-rule="evenodd" d="M19.5 0.5C182.833 0.5 346.167 0.5 509.5 0.5C509.5 3.8333 509.5 7.1667 509.5 10.5C506.167 10.5 502.833 10.5 499.5 10.5C499.5 13.8333 499.5 17.1667 499.5 20.5C436.167 20.5 372.833 20.5 309.5 20.5C309.5 17.1667 309.5 13.8333 309.5 10.5C289.5 10.5 269.5 10.5 249.5 10.5C249.5 13.8333 249.5 17.1667 249.5 20.5C226.167 20.5 202.833 20.5 179.5 20.5C179.5 23.8333 179.5 27.1667 179.5 30.5C169.5 30.5 159.5 30.5 149.5 30.5C149.5 27.1667 149.5 23.8333 149.5 20.5C132.833 20.5 116.167 20.5 99.5 20.5C99.5 17.1667 99.5 13.8333 99.5 10.5C89.5 10.5 79.5 10.5 69.5 10.5C69.5 13.8333 69.5 17.1667 69.5 20.5C62.8333 20.5 56.1667 20.5 49.5 20.5C49.5 17.1667 49.5 13.8333 49.5 10.5C39.5 10.5 29.5 10.5 19.5 10.5C19.5 7.1667 19.5 3.8333 19.5 0.5Z" fill="#21BD34"/>
<path fill-rule="evenodd" clip-rule="evenodd" d="M529.5 0.5C599.5 0.5 669.5 0.5 739.5 0.5C739.5 3.8333 739.5 7.1667 739.5 10.5C736.167 10.5 732.833 10.5 729.5 10.5C729.5 13.8333 729.5 17.1667 729.5 20.5C719.5 20.5 709.5 20.5 699.5 20.5C699.5 17.1667 699.5 13.8333 699.5 10.5C686.167 10.5 672.833 10.5 659.5 10.5C659.5 13.8333 659.5 17.1667 659.5 20.5C656.167 20.5 652.833 20.5 649.5 20.5C649.5 23.8333 649.5 27.1667 649.5 30.5C642.833 30.5 636.167 30.5 629.5 30.5C629.5 27.1667 629.5 23.8333 629.5 20.5C622.833 20.5 616.167 20.5 609.5 20.5C609.5 17.1667 609.5 13.8333 609.5 10.5C602.833 10.5 596.167 10.5 589.5 10.5C589.5 13.8333 589.5 17.1667 589.5 20.5C576.167 20.5 562.833 20.5 549.5 20.5C549.5 17.1667 549.5 13.8333 549.5 10.5C542.833 10.5 536.167 10.5 529.5 10.5C529.5 7.1667 529.5 3.8333 529.5 0.5Z" fill="#21BD34"/>
<path fill-rule="evenodd" clip-rule="evenodd" d="M9.5 10.5C9.5 13.8333 9.5 17.1667 9.5 20.5C12.8333 20.5 16.1667 20.5 19.5 20.5C19.5 30.5 19.5 40.5 19.5 50.5C49.5 50.5 79.5 50.5 109.5 50.5C109.5 53.8333 109.5 57.1667 109.5 60.5C112.833 60.5 116.167 60.5 119.5 60.5C119.5 63.833 119.5 67.167 119.5 70.5C126.167 70.5 132.833 70.5 139.5 70.5C139.5 67.167 139.5 63.833 139.5 60.5C142.833 60.5 146.167 60.5 149.5 60.5C149.5 57.1667 149.5 53.8333 149.5 50.5C162.833 50.5 176.167 50.5 189.5 50.5C189.5 53.8333 189.5 57.1667 189.5 60.5C182.833 60.5 176.167 60.5 169.5 60.5C169.5 63.833 169.5 67.167 169.5 70.5C166.167 70.5 162.833 70.5 159.5 70.5C159.5 77.167 159.5 83.833 159.5 90.5C149.5 90.5 139.5 90.5 129.5 90.5C129.5 87.167 129.5 83.833 129.5 80.5C122.833 80.5 116.167 80.5 109.5 80.5C109.5 77.167 109.5 73.833 109.5 70.5C106.167 70.5 102.833 70.5 99.5 70.5C99.5 67.167 99.5 63.833 99.5 60.5C96.167 60.5 92.833 60.5 89.5 60.5C89.5 63.833 89.5 67.167 89.5 70.5C79.5 70.5 69.5 70.5 59.5 70.5C59.5 67.167 59.5 63.833 59.5 60.5C56.1667 60.5 52.8333 60.5 49.5 60.5C49.5 63.833 49.5 67.167 49.5 70.5C39.5 70.5 29.5 70.5 19.5 70.5C19.5 67.167 19.5 63.833 19.5 60.5C16.1667 60.5 12.8333 60.5 9.5 60.5C9.5 50.5 9.5 40.5 9.5 30.5C6.1667 30.5 2.8333 30.5 -0.5 30.5C-0.5 23.8333 -0.5 17.1667 -0.5 10.5C2.8333 10.5 6.1667 10.5 9.5 10.5Z" fill="#0D4D15"/>
<path fill-rule="evenodd" clip-rule="evenodd" d="M759.5 40.5C759.5 43.8333 759.5 47.1667 759.5 50.5C756.167 50.5 752.833 50.5 749.5 50.5C749.5 53.8333 749.5 57.1667 749.5 60.5C742.833 60.5 736.167 60.5 729.5 60.5C729.5 57.1667 729.5 53.8333 729.5 50.5C726.167 50.5 722.833 50.5 719.5 50.5C719.5 47.1667 719.5 43.8333 719.5 40.5C699.5 40.5 679.5 40.5 659.5 40.5C659.5 37.1667 659.5 33.8333 659.5 30.5C662.833 30.5 666.167 30.5 669.5 30.5C669.5 27.1667 669.5 23.8333 669.5 20.5C676.167 20.5 682.833 20.5 689.5 20.5C689.5 23.8333 689.5 27.1667 689.5 30.5C706.167 30.5 722.833 30.5 739.5 30.5C739.5 33.8333 739.5 37.1667 739.5 40.5C746.167 40.5 752.833 40.5 759.5 40.5Z" fill="#0D4D15"/>
<path fill-rule="evenodd" clip-rule="evenodd" d="M-0.5 30.5C2.8333 30.5 6.1667 30.5 9.5 30.5C9.5 40.5 9.5 50.5 9.5 60.5C6.1667 60.5 2.8333 60.5 -0.5 60.5C-0.5 50.5 -0.5 40.5 -0.5 30.5Z" fill="#44360B"/>
<path fill-rule="evenodd" clip-rule="evenodd" d="M459.5 40.5C446.167 40.5 432.833 40.5 419.5 40.5C419.5 37.1667 419.5 33.8333 419.5 30.5C432.833 30.5 446.167 30.5 459.5 30.5C459.5 33.8333 459.5 37.1667 459.5 40.5Z" fill="#0D4D15"/>
<path fill-rule="evenodd" clip-rule="evenodd" d="M219.5 40.5C219.5 43.8333 219.5 47.1667 219.5 50.5C216.167 50.5 212.833 50.5 209.5 50.5C209.5 60.5 209.5 70.5 209.5 80.5C226.167 80.5 242.833 80.5 259.5 80.5C259.5 73.833 259.5 67.167 259.5 60.5C276.167 60.5 292.833 60.5 309.5 60.5C309.5 67.167 309.5 73.833 309.5 80.5C312.833 80.5 316.167 80.5 319.5 80.5C319.5 83.833 319.5 87.167 319.5 90.5C342.833 90.5 366.167 90.5 389.5 90.5C389.5 87.167 389.5 83.833 389.5 80.5C392.833 80.5 396.167 80.5 399.5 80.5C399.5 70.5 399.5 60.5 399.5 50.5C402.833 50.5 406.167 50.5 409.5 50.5C409.5 47.1667 409.5 43.8333 409.5 40.5C412.833 40.5 416.167 40.5 419.5 40.5C432.833 40.5 446.167 40.5 459.5 40.5C459.5 47.1667 459.5 53.8333 459.5 60.5C466.167 60.5 472.833 60.5 479.5 60.5C486.167 60.5 492.833 60.5 499.5 60.5C502.833 60.5 506.167 60.5 509.5 60.5C509.5 63.833 509.5 67.167 509.5 70.5C516.167 70.5 522.833 70.5 529.5 70.5C529.5 73.833 529.5 77.167 529.5 80.5C546.167 80.5 562.833 80.5 579.5 80.5C579.5 77.167 579.5 73.833 579.5 70.5C599.5 70.5 619.5 70.5 639.5 70.5C639.5 67.167 639.5 63.833 639.5 60.5C642.833 60.5 646.167 60.5 649.5 60.5C649.5 57.1667 649.5 53.8333 649.5 50.5C652.833 50.5 656.167 50.5 659.5 50.5C659.5 47.1667 659.5 43.8333 659.5 40.5C679.5 40.5 699.5 40.5 719.5 40.5C719.5 43.8333 719.5 47.1667 719.5 50.5C722.833 50.5 726.167 50.5 729.5 50.5C729.5 53.8333 729.5 57.1667 729.5 60.5C736.167 60.5 742.833 60.5 749.5 60.5C749.5 57.1667 749.5 53.8333 749.5 50.5C752.833 50.5 756.167 50.5 759.5 50.5C759.5 60.5 759.5 70.5 759.5 80.5C756.167 80.5 752.833 80.5 749.5 80.5C749.5 83.833 749.5 87.167 749.5 90.5C746.167 90.5 742.833 90.5 739.5 90.5C739.5 93.833 739.5 97.167 739.5 100.5C729.5 100.5 719.5 100.5 709.5 100.5C709.5 103.833 709.5 107.167 709.5 110.5C489.5 110.5 269.5 110.5 49.5 110.5C49.5 107.167 49.5 103.833 49.5 100.5C42.8333 100.5 36.1667 100.5 29.5 100.5C29.5 97.167 29.5 93.833 29.5 90.5C22.8333 90.5 16.1667 90.5 9.5 90.5C9.5 80.5 9.5 70.5 9.5 60.5C12.8333 60.5 16.1667 60.5 19.5 60.5C19.5 63.833 19.5 67.167 19.5 70.5C29.5 70.5 39.5 70.5 49.5 70.5C49.5 67.167 49.5 63.833 49.5 60.5C52.8333 60.5 56.1667 60.5 59.5 60.5C59.5 63.833 59.5 67.167 59.5 70.5C69.5 70.5 79.5 70.5 89.5 70.5C89.5 67.167 89.5 63.833 89.5 60.5C92.833 60.5 96.167 60.5 99.5 60.5C99.5 63.833 99.5 67.167 99.5 70.5C102.833 70.5 106.167 70.5 109.5 70.5C109.5 73.833 109.5 77.167 109.5 80.5C116.167 80.5 122.833 80.5 129.5 80.5C129.5 83.833 129.5 87.167 129.5 90.5C139.5 90.5 149.5 90.5 159.5 90.5C159.5 83.833 159.5 77.167 159.5 70.5C162.833 70.5 166.167 70.5 169.5 70.5C169.5 67.167 169.5 63.833 169.5 60.5C176.167 60.5 182.833 60.5 189.5 60.5C189.5 57.1667 189.5 53.8333 189.5 50.5C189.5 47.1667 189.5 43.8333 189.5 40.5C199.5 40.5 209.5 40.5 219.5 40.5Z" fill="#44360B"/>
<path fill-rule="evenodd" clip-rule="evenodd" d="M219.5 40.5C222.833 40.5 226.167 40.5 229.5 40.5C229.5 47.1667 229.5 53.8333 229.5 60.5C239.5 60.5 249.5 60.5 259.5 60.5C259.5 67.167 259.5 73.833 259.5 80.5C242.833 80.5 226.167 80.5 209.5 80.5C209.5 70.5 209.5 60.5 209.5 50.5C212.833 50.5 216.167 50.5 219.5 50.5C219.5 47.1667 219.5 43.8333 219.5 40.5Z" fill="#0D4D15"/>
<path fill-rule="evenodd" clip-rule="evenodd" d="M409.5 40.5C409.5 43.8333 409.5 47.1667 409.5 50.5C406.167 50.5 402.833 50.5 399.5 50.5C399.5 47.1667 399.5 43.8333 399.5 40.5C402.833 40.5 406.167 40.5 409.5 40.5Z" fill="#0D4D15"/>
<path fill-rule="evenodd" clip-rule="evenodd" d="M459.5 40.5C462.833 40.5 466.167 40.5 469.5 40.5C469.5 43.8333 469.5 47.1667 469.5 50.5C472.833 50.5 476.167 50.5 479.5 50.5C479.5 53.8333 479.5 57.1667 479.5 60.5C472.833 60.5 466.167 60.5 459.5 60.5C459.5 53.8333 459.5 47.1667 459.5 40.5Z" fill="#0D4D15"/>
<path fill-rule="evenodd" clip-rule="evenodd" d="M659.5 40.5C659.5 43.8333 659.5 47.1667 659.5 50.5C656.167 50.5 652.833 50.5 649.5 50.5C649.5 53.8333 649.5 57.1667 649.5 60.5C646.167 60.5 642.833 60.5 639.5 60.5C639.5 63.833 639.5 67.167 639.5 70.5C619.5 70.5 599.5 70.5 579.5 70.5C579.5 73.833 579.5 77.167 579.5 80.5C562.833 80.5 546.167 80.5 529.5 80.5C529.5 77.167 529.5 73.833 529.5 70.5C522.833 70.5 516.167 70.5 509.5 70.5C509.5 67.167 509.5 63.833 509.5 60.5C506.167 60.5 502.833 60.5 499.5 60.5C499.5 57.1667 499.5 53.8333 499.5 50.5C512.833 50.5 526.167 50.5 539.5 50.5C539.5 53.8333 539.5 57.1667 539.5 60.5C569.5 60.5 599.5 60.5 629.5 60.5C629.5 57.1667 629.5 53.8333 629.5 50.5C632.833 50.5 636.167 50.5 639.5 50.5C639.5 47.1667 639.5 43.8333 639.5 40.5C646.167 40.5 652.833 40.5 659.5 40.5Z" fill="#0D4D15"/>
<path fill-rule="evenodd" clip-rule="evenodd" d="M399.5 50.5C399.5 60.5 399.5 70.5 399.5 80.5C396.167 80.5 392.833 80.5 389.5 80.5C389.5 83.833 389.5 87.167 389.5 90.5C366.167 90.5 342.833 90.5 319.5 90.5C319.5 87.167 319.5 83.833 319.5 80.5C316.167 80.5 312.833 80.5 309.5 80.5C309.5 73.833 309.5 67.167 309.5 60.5C292.833 60.5 276.167 60.5 259.5 60.5C259.5 57.1667 259.5 53.8333 259.5 50.5C282.833 50.5 306.167 50.5 329.5 50.5C329.5 53.8333 329.5 57.1667 329.5 60.5C332.833 60.5 336.167 60.5 339.5 60.5C339.5 63.833 339.5 67.167 339.5 70.5C352.833 70.5 366.167 70.5 379.5 70.5C379.5 67.167 379.5 63.833 379.5 60.5C382.833 60.5 386.167 60.5 389.5 60.5C389.5 57.1667 389.5 53.8333 389.5 50.5C392.833 50.5 396.167 50.5 399.5 50.5Z" fill="#0D4D15"/>
</svg>
